<svg width="1400" height="550" viewBox="0 0 1400 550" fill="none" xmlns="http://www.w3.org/2000/svg">
<path d="M700 0.5C893.253 0.5 1068.19 31.2737 1194.79 81.0107C1258.1 105.88 1309.29 135.481 1344.65 168.324C1380.01 201.167 1399.5 237.216 1399.5 275C1399.5 312.784 1380.01 348.833 1344.65 381.676C1309.29 414.519 1258.1 444.12 1194.79 468.989C1068.19 518.726 893.253 549.5 700 549.5C506.747 549.5 331.811 518.726 205.208 468.989C141.905 444.12 90.71 414.519 55.3496 381.676C19.99 348.833 0.5 312.784 0.5 275C0.5 237.216 19.99 201.167 55.3496 168.324C90.71 135.481 141.905 105.88 205.208 81.0107C331.811 31.2737 506.747 0.5 700 0.5Z" stroke="#F699CD"/>
</svg>
